<svg width="100%" height="100%" id="svg" viewBox="0 0 1440 590" xmlns="http://www.w3.org/2000/svg" class="transition duration-300 ease-in-out delay-150"><path d="M 0,600 C 0,600 0,200 0,200 C 70.33596702164203,232.38680865681897 140.67193404328407,264.77361731363794 212,245 C 283.32806595671593,225.22638268636206 355.6482308485057,153.29233940226726 415,133 C 474.3517691514943,112.70766059773275 520.7351425626931,144.05702507729305 583,179 C 645.2648574373069,213.94297492270695 723.4111989007214,252.47956028856066 807,262 C 890.5888010992786,271.52043971143934 979.6200618344212,252.02473376846442 1046,254 C 1112.3799381655788,255.97526623153558 1156.1085537615938,279.4215046375816 1218,274 C 1279.8914462384062,268.5784953624184 1359.9457231192032,234.2892476812092 1440,200 C 1440,200 1440,600 1440,600 Z" stroke="none" stroke-width="0" fill="#0693e3" fill-opacity="0.53" class="transition-all duration-300 ease-in-out delay-150 path-0"></path><path d="M 0,600 C 0,600 0,400 0,400 C 79.27447612504292,416.4129165235314 158.54895225008585,432.8258330470629 226,444 C 293.45104774991415,455.1741669529371 349.0786671246994,461.10958433528 407,466 C 464.9213328753006,470.89041566472 525.1363792511165,474.7358296118172 601,471 C 676.8636207488835,467.2641703881828 768.3758158708347,455.9470972174511 835,456 C 901.6241841291653,456.0529027825489 943.3603572655447,467.47578151837854 1011,440 C 1078.6396427344553,412.52421848162146 1172.182755066987,346.1497767090347 1248,333 C 1323.817244933013,319.8502232909653 1381.9086224665066,359.9251116454826 1440,400 C 1440,400 1440,600 1440,600 Z" stroke="none" stroke-width="0" fill="#0693e3" fill-opacity="1" class="transition-all duration-300 ease-in-out delay-150 path-1"></path></svg>